Elsa and Clive, two young rebellious scientists, defy legal and ethical boundaries and forge ahead with a dangerous experiment: splicing together human and animal DNA to create a new organism. Named "Dren", the creature rapidly develops from a deformed female infant into a beautiful but dangerous winged human-chimera, who forges a bond with both of her creators - only to have that bond turn deadly.

 
MOVIEmeter: Up 200% in popularity this week 
http://www.imdb.com/title/tt1017460/
Genre:Horror | Sci-Fi | Thriller 
Director:Vincenzo Natali

 
Video
ID : 0
Format : MPEG-4 Visual
Format profile : Advanced Simple@L5
Format settings, BVOP : Yes
Format settings, QPel : No
Format settings, GMC : No warppoints
Format settings, Matrix : Default (H.263)
Muxing mode : Packed bitstream
Codec ID : XVID
Codec ID/Hint : XviD
Duration : 1h 37mn
Bit rate : 744 Kbps
Width : 720 pixels
Height : 376 pixels
Display aspect ratio : 1.915
Frame rate : 25.000 fps
Resolution : 8 bits
Colorimetry : 4:2:0
Scan type : Progressive
Bits/(Pixel*Frame) : 0.110
Stream size : 519 MiB (79%)
Writing library : XviD 1.2.1 (UTC 2008-12-04)

Audio
ID : 1
Format : AC-3
Format/Info : Audio Coding 3
Codec ID : 2000
Duration : 1h 35mn
Bit rate mode : Constant
Bit rate : 192 Kbps
Channel(s) : 2 channels
Sampling rate : 48.0 KHz
Stream size : 131 MiB (20%)
Alignment : Split accross interleaves
Interleave, duration : 41 ms (1.02 video frame)
Interleave, preload duration : 500 ms



Screeenshots
 
http://postimg.com/image/19000/18223.jpg
 
http://postimg.com/image/19000/18224.jpg